<svg width="91" height="16" viewBox="0 0 91 16" fill="none" xmlns="http://www.w3.org/2000/svg">
<path d="M7.53333 0L5.02222 5.02222L0 5.65L3.45696 9.51711L2.51111 15.0667L7.53333 12.5556L12.5556 15.0667L11.6181 9.51711L15.0667 5.65L10.0444 5.02222L7.53333 0ZM7.53333 1.87496L9.492 5.80067L13.3842 6.28615L10.7224 9.266L11.4507 13.5767L7.53333 11.6181L3.616 13.5767L4.34422 9.266L1.68244 6.28615L5.57467 5.80067L7.53333 1.87496Z" fill="#F2C94C"/>
<path d="M26.3667 0L23.8556 5.02222L18.8333 5.65L22.2903 9.51711L21.3445 15.0667L26.3667 12.5556L31.3889 15.0667L30.4514 9.51711L33.9 5.65L28.8778 5.02222L26.3667 0ZM26.3667 1.87496L28.3253 5.80067L32.2176 6.28615L29.5558 9.266L30.284 13.5767L26.3667 11.6181L22.4493 13.5767L23.1776 9.266L20.5158 6.28615L24.408 5.80067L26.3667 1.87496Z" fill="#F2C94C"/>
<path d="M45.2 0L42.6889 5.02222L37.6667 5.65L41.1236 9.51711L40.1778 15.0667L45.2 12.5556L50.2222 15.0667L49.2847 9.51711L52.7333 5.65L47.7111 5.02222L45.2 0ZM45.2 1.87496L47.1587 5.80067L51.0509 6.28615L48.3891 9.266L49.1173 13.5767L45.2 11.6181L41.2827 13.5767L42.0109 9.266L39.3491 6.28615L43.2413 5.80067L45.2 1.87496Z" fill="#F2C94C"/>
<path d="M64.0333 0L61.5222 5.02222L56.5 5.65L59.957 9.51711L59.0111 15.0667L64.0333 12.5556L69.0556 15.0667L68.1181 9.51711L71.5667 5.65L66.5444 5.02222L64.0333 0ZM64.0333 1.87496L65.992 5.80067L69.8842 6.28615L67.2224 9.266L67.9507 13.5767L64.0333 11.6181L60.116 13.5767L60.8442 9.266L58.1824 6.28615L62.0747 5.80067L64.0333 1.87496Z" fill="#F2C94C"/>
<mask id="path-5-inside-1_1_89" fill="white">
<path d="M82.8667 0L80.3555 5.02222L75.3333 5.65L78.7903 9.51711L77.8444 15.0667L82.8667 12.5556L87.8889 15.0667L86.9514 9.51711L90.4 5.65L85.3778 5.02222L82.8667 0ZM82.8667 1.87496L84.8253 5.80067L88.7175 6.28615L86.0558 9.266L86.784 13.5767L82.8667 11.6181L78.9493 13.5767L79.6776 9.266L77.0158 6.28615L80.908 5.80067L82.8667 1.87496Z"/>
</mask>
<path d="M82.8667 0L83.94 -0.536656L82.8667 -2.68328L81.7933 -0.536656L82.8667 0ZM80.3555 5.02222L80.5044 6.21296L81.1417 6.1333L81.4289 5.55888L80.3555 5.02222ZM75.3333 5.65L75.1845 4.45927L72.9131 4.74319L74.4387 6.44976L75.3333 5.65ZM78.7903 9.51711L79.9732 9.71873L80.0704 9.14856L79.6849 8.71735L78.7903 9.51711ZM77.8444 15.0667L76.6615 14.865L76.2638 17.1986L78.3811 16.14L77.8444 15.0667ZM82.8667 12.5556L83.4033 11.4822L82.8667 11.2139L82.33 11.4822L82.8667 12.5556ZM87.8889 15.0667L87.3522 16.14L89.4657 17.1967L89.0721 14.8668L87.8889 15.0667ZM86.9514 9.51711L86.0558 8.71843L85.6722 9.14863L85.7682 9.71699L86.9514 9.51711ZM90.4 5.65L91.2956 6.44868L92.8169 4.74277L90.5488 4.45927L90.4 5.65ZM85.3778 5.02222L84.3045 5.55888L84.5917 6.1333L85.2289 6.21296L85.3778 5.02222ZM82.8667 1.87496L83.9404 1.33922L82.8667 -0.812906L81.7929 1.33922L82.8667 1.87496ZM84.8253 5.80067L83.7516 6.33641L84.0387 6.91184L84.6768 6.99144L84.8253 5.80067ZM88.7175 6.28615L89.6125 7.08557L91.1372 5.37866L88.8661 5.09538L88.7175 6.28615ZM86.0558 9.266L85.1608 8.46658L84.7764 8.89692L84.8725 9.46589L86.0558 9.266ZM86.784 13.5767L86.2473 14.6501L88.3608 15.7068L87.9672 13.3769L86.784 13.5767ZM82.8667 11.6181L83.4033 10.5448L82.8667 10.2764L82.33 10.5448L82.8667 11.6181ZM78.9493 13.5767L77.7661 13.3769L77.3725 15.7068L79.486 14.6501L78.9493 13.5767ZM79.6776 9.266L80.8608 9.46589L80.9569 8.89692L80.5725 8.46658L79.6776 9.266ZM77.0158 6.28615L76.8672 5.09538L74.5961 5.37866L76.1208 7.08557L77.0158 6.28615ZM80.908 5.80067L81.0565 6.99144L81.6947 6.91184L81.9818 6.33641L80.908 5.80067ZM81.7933 -0.536656L79.2822 4.48557L81.4289 5.55888L83.94 0.536656L81.7933 -0.536656ZM80.2067 3.83149L75.1845 4.45927L75.4822 6.84073L80.5044 6.21296L80.2067 3.83149ZM74.4387 6.44976L77.8956 10.3169L79.6849 8.71735L76.228 4.85024L74.4387 6.44976ZM77.6073 9.31549L76.6615 14.865L79.0274 15.2683L79.9732 9.71873L77.6073 9.31549ZM78.3811 16.14L83.4033 13.6289L82.33 11.4822L77.3078 13.9934L78.3811 16.14ZM82.33 13.6289L87.3522 16.14L88.4255 13.9934L83.4033 11.4822L82.33 13.6289ZM89.0721 14.8668L88.1346 9.31723L85.7682 9.71699L86.7056 15.2665L89.0721 14.8668ZM87.847 10.3158L91.2956 6.44868L89.5044 4.85132L86.0558 8.71843L87.847 10.3158ZM90.5488 4.45927L85.5266 3.83149L85.2289 6.21296L90.2512 6.84073L90.5488 4.45927ZM86.4511 4.48557L83.94 -0.536656L81.7933 0.536656L84.3045 5.55888L86.4511 4.48557ZM81.7929 2.4107L83.7516 6.33641L85.8991 5.26493L83.9404 1.33922L81.7929 2.4107ZM84.6768 6.99144L88.569 7.47692L88.8661 5.09538L84.9739 4.60989L84.6768 6.99144ZM87.8226 5.48673L85.1608 8.46658L86.9507 10.0654L89.6125 7.08557L87.8226 5.48673ZM84.8725 9.46589L85.6008 13.7766L87.9672 13.3769L87.239 9.06611L84.8725 9.46589ZM87.3207 12.5034L83.4033 10.5448L82.33 12.6914L86.2473 14.6501L87.3207 12.5034ZM82.33 10.5448L78.4127 12.5034L79.486 14.6501L83.4033 12.6914L82.33 10.5448ZM80.1326 13.7766L80.8608 9.46589L78.4943 9.06611L77.7661 13.3769L80.1326 13.7766ZM80.5725 8.46658L77.9107 5.48673L76.1208 7.08557L78.7826 10.0654L80.5725 8.46658ZM77.1643 7.47692L81.0565 6.99144L80.7595 4.60989L76.8672 5.09538L77.1643 7.47692ZM81.9818 6.33641L83.9404 2.4107L81.7929 1.33922L79.8342 5.26493L81.9818 6.33641Z" fill="black" fill-opacity="0.4" mask="url(#path-5-inside-1_1_89)"/>
</svg>
