<svg width="117" height="21" viewBox="0 0 117 21" fill="none" xmlns="http://www.w3.org/2000/svg">
<path d="M36.2031 15.7676C36.2031 15.6152 36.1797 15.4785 36.1328 15.3574C36.0898 15.2324 36.0078 15.1191 35.8867 15.0176C35.7656 14.9121 35.5957 14.8086 35.377 14.707C35.1582 14.6055 34.875 14.5 34.5273 14.3906C34.1406 14.2656 33.7734 14.125 33.4258 13.9688C33.082 13.8125 32.7773 13.6309 32.5117 13.4238C32.25 13.2129 32.043 12.9688 31.8906 12.6914C31.7422 12.4141 31.668 12.0918 31.668 11.7246C31.668 11.3691 31.7461 11.0469 31.9023 10.7578C32.0586 10.4648 32.2773 10.2148 32.5586 10.0078C32.8398 9.79688 33.1719 9.63477 33.5547 9.52148C33.9414 9.4082 34.3652 9.35156 34.8262 9.35156C35.4551 9.35156 36.0039 9.46484 36.4727 9.69141C36.9414 9.91797 37.3047 10.2285 37.5625 10.623C37.8242 11.0176 37.9551 11.4688 37.9551 11.9766H36.209C36.209 11.7266 36.1562 11.5078 36.0508 11.3203C35.9492 11.1289 35.793 10.9785 35.582 10.8691C35.375 10.7598 35.1133 10.7051 34.7969 10.7051C34.4922 10.7051 34.2383 10.752 34.0352 10.8457C33.832 10.9355 33.6797 11.0586 33.5781 11.2148C33.4766 11.3672 33.4258 11.5391 33.4258 11.7305C33.4258 11.875 33.4609 12.0059 33.5312 12.123C33.6055 12.2402 33.7148 12.3496 33.8594 12.4512C34.0039 12.5527 34.1816 12.6484 34.3926 12.7383C34.6035 12.8281 34.8477 12.916 35.125 13.002C35.5898 13.1426 35.998 13.3008 36.3496 13.4766C36.7051 13.6523 37.002 13.8496 37.2402 14.0684C37.4785 14.2871 37.6582 14.5352 37.7793 14.8125C37.9004 15.0898 37.9609 15.4043 37.9609 15.7559C37.9609 16.127 37.8887 16.459 37.7441 16.752C37.5996 17.0449 37.3906 17.293 37.1172 17.4961C36.8438 17.6992 36.5176 17.8535 36.1387 17.959C35.7598 18.0645 35.3359 18.1172 34.8672 18.1172C34.4453 18.1172 34.0293 18.0625 33.6191 17.9531C33.209 17.8398 32.8359 17.6699 32.5 17.4434C32.168 17.2168 31.9023 16.9277 31.7031 16.5762C31.5039 16.2246 31.4043 15.8086 31.4043 15.3281H33.168C33.168 15.5938 33.209 15.8184 33.291 16.002C33.373 16.1855 33.4883 16.334 33.6367 16.4473C33.7891 16.5605 33.9688 16.6426 34.1758 16.6934C34.3867 16.7441 34.6172 16.7695 34.8672 16.7695C35.1719 16.7695 35.4219 16.7266 35.6172 16.6406C35.8164 16.5547 35.9629 16.4355 36.0566 16.2832C36.1543 16.1309 36.2031 15.959 36.2031 15.7676ZM44.2272 9.46875H45.9791V15.1055C45.9791 15.7617 45.8385 16.3145 45.5573 16.7637C45.2799 17.2129 44.8952 17.5508 44.403 17.7773C43.9147 18.0039 43.3522 18.1172 42.7155 18.1172C42.0788 18.1172 41.5123 18.0039 41.0163 17.7773C40.5241 17.5508 40.1373 17.2129 39.8561 16.7637C39.5788 16.3145 39.4401 15.7617 39.4401 15.1055V9.46875H41.1979V15.1055C41.1979 15.4883 41.2584 15.8008 41.3795 16.043C41.5006 16.2852 41.6745 16.4629 41.901 16.5762C42.1315 16.6895 42.403 16.7461 42.7155 16.7461C43.0358 16.7461 43.3073 16.6895 43.5299 16.5762C43.7565 16.4629 43.9284 16.2852 44.0455 16.043C44.1666 15.8008 44.2272 15.4883 44.2272 15.1055V9.46875ZM51.1087 14.959H48.9348V13.5879H51.1087C51.4446 13.5879 51.718 13.5332 51.929 13.4238C52.1399 13.3105 52.2942 13.1543 52.3919 12.9551C52.4895 12.7559 52.5384 12.5312 52.5384 12.2812C52.5384 12.0273 52.4895 11.791 52.3919 11.5723C52.2942 11.3535 52.1399 11.1777 51.929 11.0449C51.718 10.9121 51.4446 10.8457 51.1087 10.8457H49.5442V18H47.7864V9.46875H51.1087C51.7766 9.46875 52.3489 9.58984 52.8255 9.83203C53.3059 10.0703 53.6731 10.4004 53.927 10.8223C54.1809 11.2441 54.3079 11.7266 54.3079 12.2695C54.3079 12.8203 54.1809 13.2969 53.927 13.6992C53.6731 14.1016 53.3059 14.4121 52.8255 14.6309C52.3489 14.8496 51.7766 14.959 51.1087 14.959ZM59.203 14.959H57.0292V13.5879H59.203C59.539 13.5879 59.8124 13.5332 60.0234 13.4238C60.2343 13.3105 60.3886 13.1543 60.4862 12.9551C60.5839 12.7559 60.6327 12.5312 60.6327 12.2812C60.6327 12.0273 60.5839 11.791 60.4862 11.5723C60.3886 11.3535 60.2343 11.1777 60.0234 11.0449C59.8124 10.9121 59.539 10.8457 59.203 10.8457H57.6386V18H55.8808V9.46875H59.203C59.871 9.46875 60.4433 9.58984 60.9198 9.83203C61.4003 10.0703 61.7675 10.4004 62.0214 10.8223C62.2753 11.2441 62.4023 11.7266 62.4023 12.2695C62.4023 12.8203 62.2753 13.2969 62.0214 13.6992C61.7675 14.1016 61.4003 14.4121 60.9198 14.6309C60.4433 14.8496 59.871 14.959 59.203 14.959ZM70.983 13.5352V13.9395C70.983 14.5879 70.8951 15.1699 70.7193 15.6855C70.5435 16.2012 70.2955 16.6406 69.9752 17.0039C69.6548 17.3633 69.272 17.6387 68.8267 17.8301C68.3853 18.0215 67.8951 18.1172 67.356 18.1172C66.8209 18.1172 66.3306 18.0215 65.8853 17.8301C65.4439 17.6387 65.0611 17.3633 64.7369 17.0039C64.4127 16.6406 64.1607 16.2012 63.981 15.6855C63.8052 15.1699 63.7173 14.5879 63.7173 13.9395V13.5352C63.7173 12.8828 63.8052 12.3008 63.981 11.7891C64.1568 11.2734 64.4048 10.834 64.7252 10.4707C65.0494 10.1074 65.4322 9.83008 65.8736 9.63867C66.3189 9.44727 66.8091 9.35156 67.3443 9.35156C67.8834 9.35156 68.3736 9.44727 68.815 9.63867C69.2603 9.83008 69.6431 10.1074 69.9634 10.4707C70.2877 10.834 70.5377 11.2734 70.7134 11.7891C70.8931 12.3008 70.983 12.8828 70.983 13.5352ZM69.2076 13.9395V13.5234C69.2076 13.0703 69.1666 12.6719 69.0845 12.3281C69.0025 11.9844 68.8814 11.6953 68.7212 11.4609C68.5611 11.2266 68.3658 11.0508 68.1353 10.9336C67.9048 10.8125 67.6412 10.752 67.3443 10.752C67.0474 10.752 66.7837 10.8125 66.5533 10.9336C66.3267 11.0508 66.1334 11.2266 65.9732 11.4609C65.817 11.6953 65.6978 11.9844 65.6158 12.3281C65.5337 12.6719 65.4927 13.0703 65.4927 13.5234V13.9395C65.4927 14.3887 65.5337 14.7871 65.6158 15.1348C65.6978 15.4785 65.8189 15.7695 65.9791 16.0078C66.1392 16.2422 66.3345 16.4199 66.565 16.541C66.7955 16.6621 67.0591 16.7227 67.356 16.7227C67.6529 16.7227 67.9166 16.6621 68.147 16.541C68.3775 16.4199 68.5709 16.2422 68.7271 16.0078C68.8834 15.7695 69.0025 15.4785 69.0845 15.1348C69.1666 14.7871 69.2076 14.3887 69.2076 13.9395ZM72.6086 9.46875H75.7902C76.4426 9.46875 77.0031 9.56641 77.4719 9.76172C77.9445 9.95703 78.3078 10.2461 78.5617 10.6289C78.8156 11.0117 78.9426 11.4824 78.9426 12.041C78.9426 12.498 78.8645 12.8906 78.7082 13.2188C78.5559 13.543 78.3391 13.8145 78.0578 14.0332C77.7805 14.248 77.4543 14.4199 77.0793 14.5488L76.5227 14.8418H73.757L73.7453 13.4707H75.802C76.1105 13.4707 76.3664 13.416 76.5695 13.3066C76.7727 13.1973 76.925 13.0449 77.0266 12.8496C77.132 12.6543 77.1848 12.4277 77.1848 12.1699C77.1848 11.8965 77.134 11.6602 77.0324 11.4609C76.9309 11.2617 76.7766 11.1094 76.5695 11.0039C76.3625 10.8984 76.1027 10.8457 75.7902 10.8457H74.3664V18H72.6086V9.46875ZM77.3781 18L75.4328 14.1973L77.2902 14.1855L79.259 17.918V18H77.3781ZM84.119 9.46875V18H82.367V9.46875H84.119ZM86.744 9.46875V10.8457H79.783V9.46875H86.744ZM96.798 16.6816V18H90.962V16.875L93.7218 13.916C93.9991 13.6074 94.2179 13.3359 94.378 13.1016C94.5382 12.8633 94.6534 12.6504 94.7238 12.4629C94.798 12.2715 94.8351 12.0898 94.8351 11.918C94.8351 11.6602 94.7921 11.4395 94.7062 11.2559C94.6202 11.0684 94.4933 10.9238 94.3253 10.8223C94.1613 10.7207 93.9581 10.6699 93.7159 10.6699C93.4581 10.6699 93.2355 10.7324 93.048 10.8574C92.8644 10.9824 92.7238 11.1562 92.6261 11.3789C92.5323 11.6016 92.4855 11.8535 92.4855 12.1348H90.7921C90.7921 11.627 90.9132 11.1621 91.1554 10.7402C91.3976 10.3145 91.7394 9.97656 92.1808 9.72656C92.6222 9.47266 93.1456 9.3457 93.7511 9.3457C94.3488 9.3457 94.8527 9.44336 95.2628 9.63867C95.6769 9.83008 95.9894 10.1074 96.2003 10.4707C96.4152 10.8301 96.5226 11.2598 96.5226 11.7598C96.5226 12.041 96.4777 12.3164 96.3878 12.5859C96.298 12.8516 96.1691 13.1172 96.0011 13.3828C95.837 13.6445 95.6378 13.9102 95.4034 14.1797C95.1691 14.4492 94.9093 14.7285 94.6241 15.0176L93.1417 16.6816H96.798ZM104.189 14.8125V16.1367H98.0427L97.9607 15.1113L101.517 9.46875H102.859L101.406 11.9004L99.6365 14.8125H104.189ZM103.222 9.46875V18H101.535V9.46875H103.222ZM109.178 9.46875L106.049 18.7324H104.795L107.924 9.46875H109.178ZM116.071 9.46875V10.377L112.772 18H110.991L114.29 10.7871H110.042V9.46875H116.071Z" fill="black" fill-opacity="0.5"/>
<path d="M11 0C4.9346 0 0 4.7103 0 10.5V14.8501C0 15.9253 0.9867 16.8 2.2 16.8H3.3C3.59174 16.8 3.87153 16.6894 4.07782 16.4925C4.28411 16.2955 4.4 16.0285 4.4 15.75V10.3498C4.4 10.0714 4.28411 9.8043 4.07782 9.60739C3.87153 9.41047 3.59174 9.29985 3.3 9.29985H2.3012C2.9128 5.23635 6.5758 2.1 11 2.1C15.4242 2.1 19.0872 5.23635 19.6988 9.29985H18.7C18.4083 9.29985 18.1285 9.41047 17.9222 9.60739C17.7159 9.8043 17.6 10.0714 17.6 10.3498V16.8C17.6 17.9581 16.6133 18.9 15.4 18.9H13.2V17.85H8.8V21H15.4C17.8266 21 19.8 19.1163 19.8 16.8C21.0133 16.8 22 15.9253 22 14.8501V10.5C22 4.7103 17.0654 0 11 0Z" fill="#0A032A"/>
</svg>
